<?xml version="1.0" encoding="utf-8"?>
<!-- Generator: Adobe Illustrator 24.0.0, SVG Export Plug-In . SVG Version: 6.00 Build 0)  -->
<svg version="1.1" id="Layer_1" xmlns="http://www.w3.org/2000/svg" xmlns:xlink="http://www.w3.org/1999/xlink" x="0px" y="0px"
	 viewBox="0 0 185 87" style="enable-background:new 0 0 185 87;" xml:space="preserve">
<style type="text/css">
	.st0{fill:#231F20;}
	.st1{fill:#EB008B;}
</style>
<path class="st0" d="M1.37,61.04v-0.08h5.35V23.51H1.37v-0.08h11.07l9.91,28.82l8.79-28.82h10.67v0.08h-5.03v37.45h5.03v0.08H26.28
	v-0.08h5.03V23.51h-0.13L19.52,61.77h-0.08L7.32,26.55c-0.21-0.63-0.31-2.49-0.31-3.04H6.8v37.45h5.35v0.08H1.37z"/>
<path class="st0" d="M52.27,37.43c2.81,0,5.24,1.23,6.69,2.99s2.25,3.38,2.25,5.4c0,1.49-0.39,2.1-1.94,2.1H45.74
	c0,2.62,0.18,4.85,0.66,6.66c1.94,7.32,13.74,7.55,14.58-1.36h0.08c-0.45,5.01-4.01,8.23-8.86,8.23c-6.87,0-11.28-5.3-11.28-11.7
	C40.91,42.97,45.42,37.43,52.27,37.43z M54.94,47.84c1.47,0,1.76-0.76,1.76-2.54c0-3.41-0.52-7.79-4.98-7.79
	c-4.35,0-5.8,6.4-5.95,10.33H54.94z"/>
<path class="st0" d="M61.47,61.04v-0.08h3.72V21.88h-3.72v-0.08h8.02v39.15h3.72v0.08H61.47z"/>
<path class="st1" d="M89.83,55.57c-0.21-3.35,2.53-5.24,5.66-7.25c-1.02-1.62-1.51-3.13-1.58-4.25c-0.15-2.32,1.55-4.58,3.9-4.58
	c2.04,0,3.28,1.13,3.39,3c0.08,1.49-0.45,2.37-3.49,4.43l6.08,9.58l0.1,0.17c2.07-2.91,2.11-5.36,2.25-7.63h-4.23l0.04-0.04h7.88
	v0.04h-3.65c-0.14,1.97-0.08,4.66-2.26,7.67c1.41,2.18,3.18,4.06,4.61,4.06c0.63,0,1.24-0.11,1.8-0.32l0.01,0.04
	c-1.06,0.35-2.05,0.53-3,0.53c-2.19,0-3.67,0.04-5.29-2.42c-1.58,1.37-2.96,2.42-5.49,2.42C92.99,61.03,90.05,59.15,89.83,55.57z
	 M95.51,48.37c-2.46,1.83-3.14,3.59-3,5.77c0.21,3.35,2.86,5.42,6.02,5.42c0.71,0,2.22-0.11,3.48-0.99l-0.04-0.07L95.51,48.37z
	 M97.8,39.54c-1.44,0-1.96,1.73-1.86,3.17c0.08,1.58,0.61,2.4,1.62,3.98l0.13,0.21c1.9-1.4,2.28-2.88,2.29-4.4
	C100,40.49,99.09,39.54,97.8,39.54z"/>
<path class="st0" d="M122.83,61.04v-0.08h5.03V23.51h-5.03v-0.08h15.52v0.08h-5.03v37.45h5.03v0.08H122.83z"/>
<path class="st0" d="M139.04,45.83l0.58-7.97h17.31l-12.06,23.1h6.98c5.56,0,7-1.26,7.32-9.83h0.08l-0.37,9.91h-18.88l12.04-23.1
	h-6.58c-4.96,0-5.74,0.94-6.29,7.89H139.04z"/>
<path class="st0" d="M168.48,48.82c2.23-0.66,4.38-1.31,6.37-1.91v-2.65c0-3.07,0.13-6.74-4.54-6.74c-3.07,0-4.98,2.23-3.78,5.01
	c0.26,0.55,0.39,1.1,0.39,1.63c0,1.02-0.76,1.89-2.23,1.89c-1.68,0-2.49-0.97-2.49-2.46c0-1.6,0.79-3.02,2.39-4.25
	c1.6-1.26,3.54-1.89,5.79-1.89c3.04,0,5.27,0.81,6.66,2.44c1.39,1.6,2.1,3.75,2.1,6.43v11.83c0,2.94,0.26,3.72,4.51,2.88v0.08
	c-3.25,1.1-7.74-0.1-8.81-3.49v-0.18c-1.7,2.6-3.57,4.04-6.82,4.04c-1.84,0-3.33-0.5-4.46-1.47c-1.13-0.97-1.68-2.31-1.68-4.01
	C161.9,51.78,164.42,50.02,168.48,48.82z M170.19,60.98c1.6,0,3.65-1.91,4.67-3.72V46.98l-5.64,1.7c-1.86,0.55-2.75,3.28-2.75,6.87
	C166.46,58.81,167.7,60.98,170.19,60.98z"/>
<rect x="5.9" y="23.47" class="st0" width="1.87" height="37.55"/>
</svg>
